<?xml version="1.0" standalone="no"?>
<!DOCTYPE svg PUBLIC "-//W3C//DTD SVG 20010904//EN"
 "http://www.w3.org/TR/2001/REC-SVG-20010904/DTD/svg10.dtd">
<svg version="1.0" xmlns="http://www.w3.org/2000/svg"
 width="1280.000000pt" height="1280.000000pt" viewBox="0 0 1280.000000 1280.000000"
 preserveAspectRatio="xMidYMid meet">
<g transform="translate(0.000000,1280.000000) scale(0.100000,-0.100000)"
fill="#000000" stroke="none">
<path d="M6400 10940 c-379 -37 -772 -133 -1129 -276 -143 -57 -426 -194 -512
-248 -24 -15 -83 -52 -130 -81 -80 -50 -269 -179 -307 -210 -163 -133 -279
-234 -377 -332 -176 -175 -245 -253 -424 -484 -36 -46 -204 -305 -248 -382
-127 -221 -244 -485 -333 -757 -46 -141 -115 -417 -130 -525 -6 -44 -15 -105
-21 -135 -26 -148 -31 -217 -36 -495 -5 -311 2 -413 52 -740 67 -433 259 -965
479 -1329 20 -33 36 -67 36 -76 0 -9 -16 -61 -36 -116 -20 -54 -39 -113 -43
-129 -8 -31 -145 -438 -353 -1050 -66 -192 -147 -431 -180 -530 -33 -99 -71
-208 -84 -242 -12 -34 -19 -65 -15 -67 4 -3 27 2 52 10 80 28 293 95 374 118
44 13 217 67 385 120 1002 320 1320 420 1376 436 39 12 43 10 170 -53 154 -78
259 -125 374 -167 537 -199 1089 -286 1640 -259 295 14 544 51 820 121 341 87
646 208 960 381 135 75 424 265 531 350 405 321 764 733 1010 1162 64 113 190
367 229 465 137 340 206 589 266 970 46 291 45 765 -2 1085 -36 241 -47 299
-89 460 -112 429 -264 780 -501 1159 -79 126 -274 382 -384 504 -566 628
-1244 1037 -2060 1242 -144 36 -209 48 -460 87 -111 17 -762 26 -900 13z"/>
</g>
</svg>
